<svg version="1.1" id="Layer_1" xmlns="http://www.w3.org/2000/svg" xmlns:xlink="http://www.w3.org/1999/xlink" x="0px" y="0px"
	 width="100%" viewBox="0 0 200 200" enable-background="new 0 0 200 200" xml:space="preserve">
<path fill="#FEFEFE" opacity="1.000000" stroke="none" 
	d="
M201.000000,136.000000 
	C201.000000,157.637817 201.000000,179.275635 201.000000,200.956726 
	C134.450974,200.956726 67.901901,200.956726 1.000000,200.956726 
	C1.000000,179.980423 1.000000,158.958862 1.391271,137.522491 
	C2.991022,135.751633 4.199501,134.395584 5.651378,133.038025 
	C6.122768,132.841217 6.350760,132.645905 6.578751,132.450592 
	C6.158042,132.288910 5.737336,132.127243 5.293863,131.621216 
	C6.264771,128.560745 7.258445,125.844643 8.491705,123.384773 
	C10.016104,127.346535 11.184310,131.099365 12.656878,134.728699 
	C13.097897,135.815659 14.388739,136.557800 15.290241,137.457916 
	C15.629133,137.096176 15.968026,136.734451 16.306919,136.372711 
	C14.995668,132.667542 13.717949,128.950073 12.363920,125.260605 
	C10.955391,121.422646 10.515115,121.289932 5.840477,123.309494 
	C4.091232,127.402534 2.545617,131.201263 1.000001,135.000000 
	C1.000000,90.375839 1.000000,45.751675 1.000000,1.063756 
	C67.560669,1.063756 134.121429,1.063756 201.000000,1.063756 
	C201.000000,42.687023 201.000000,84.374855 200.633667,126.519211 
	C194.999893,124.034950 194.999893,124.034950 193.840118,133.767975 
	C192.690979,133.893417 191.499420,134.023499 189.837143,134.204971 
	C193.358444,138.654633 197.069977,138.075592 201.000000,136.000000 
M137.792191,137.043945 
	C137.738358,136.476974 137.684525,135.910004 136.946640,134.997864 
	C135.497406,131.756500 134.048187,128.515137 132.286392,124.574692 
	C131.114563,126.874374 130.535904,128.009979 129.960678,128.409637 
	C127.899460,124.750534 124.691994,124.432007 121.426559,126.101952 
	C117.875290,127.918053 118.020386,131.742523 119.475502,134.360962 
	C120.419609,136.059845 123.770744,137.305008 125.986290,137.222382 
	C130.115433,137.068390 130.712799,133.790604 130.488922,129.368393 
	C131.398163,131.076096 132.091599,132.958725 133.287521,134.434036 
	C134.182999,135.538712 135.725815,136.118652 137.792191,137.043945 
M114.021194,129.083252 
	C114.378181,136.404968 114.378181,136.404968 117.104179,136.774857 
	C117.104179,134.790253 117.490189,132.734711 116.997620,130.917282 
	C116.486137,129.030060 115.124611,127.373230 113.406425,125.285934 
	C111.354210,125.550468 109.301987,125.815002 107.247307,126.090836 
	C107.247307,129.770477 107.247307,133.450119 107.247307,137.129761 
	C107.860504,137.227875 108.473694,137.325989 109.086891,137.424103 
	C109.470909,134.257645 109.854927,131.091202 110.250946,127.825745 
	C111.588257,127.976639 112.742264,128.106842 114.021194,129.083252 
M97.010445,126.324196 
	C96.101974,126.432388 94.406754,126.507576 94.400627,126.653603 
	C94.263977,129.911850 94.253296,133.181213 94.432228,136.436722 
	C94.447960,136.723129 95.935524,136.928650 96.999687,137.250427 
	C96.999687,133.832550 96.999687,130.915787 97.874748,127.721024 
	C105.101616,128.017517 99.866684,134.506958 102.501556,137.085739 
	C104.729744,135.949677 105.808159,129.565918 104.068443,127.047974 
	C101.814011,123.785080 99.371750,125.497345 97.010445,126.324196 
M73.778740,133.652924 
	C70.767342,133.608810 70.984383,135.710068 72.821251,136.230957 
	C75.345650,136.946793 78.292519,136.172806 81.058365,136.037155 
	C80.837059,133.964523 80.615761,131.891876 80.454193,130.378754 
	C80.454193,128.710419 80.687752,126.620209 80.416878,126.552658 
	C78.427139,126.056450 76.300659,125.653900 74.293747,125.885277 
	C73.377686,125.990875 71.772377,128.133789 71.958977,128.434372 
	C72.887871,129.930740 74.308891,131.121628 74.924278,133.099243 
	C74.723549,133.334595 74.522820,133.569962 73.778740,133.652924 
M34.556717,137.755707 
	C34.920952,137.715271 35.285191,137.674820 36.307552,137.600006 
	C38.276611,136.531570 40.245667,135.463120 42.209034,134.397766 
	C44.235550,140.091522 48.851845,136.215744 52.718845,136.969757 
	C52.718845,133.939758 53.438908,131.000046 52.482182,128.784348 
	C51.766708,127.127365 48.968868,125.770660 46.942337,125.514687 
	C45.818256,125.372696 44.374165,127.764259 43.074306,129.013870 
	C45.624527,131.169098 43.307423,131.869308 41.995464,133.217682 
	C40.569817,125.483421 40.569817,125.483421 30.400358,126.282310 
	C30.400358,130.055756 30.310221,133.859406 30.455645,137.654022 
	C30.498903,138.782822 31.203474,139.886261 31.605032,141.001328 
	C32.222515,139.912689 32.839996,138.824036 34.556717,137.755707 
M98.483597,105.067520 
	C90.660477,105.067535 82.832344,104.918045 75.018044,105.180634 
	C73.233276,105.240601 71.496300,106.722717 69.737320,107.550301 
	C69.933830,107.900955 70.130333,108.251617 70.326836,108.602280 
	C86.295212,108.602280 102.263588,108.602280 118.768913,108.602280 
	C113.888458,100.342010 109.252632,92.687843 104.862915,84.895050 
	C104.039627,83.433502 104.200157,81.417770 103.906693,79.657776 
	C104.489113,79.550217 105.071533,79.442650 105.653954,79.335091 
	C111.663673,89.454506 117.716080,99.548996 123.650192,109.712555 
	C124.974190,111.980232 126.176071,113.878716 129.600677,112.290001 
	C121.519142,98.631500 113.533325,85.134781 105.130646,70.933517 
	C100.183128,79.257599 95.711227,86.968292 91.005623,94.533623 
	C90.114159,95.966843 88.295303,96.823227 86.904358,97.945770 
	C86.501541,97.537682 86.098724,97.129601 85.695915,96.721512 
	C86.483574,95.327667 87.248245,93.920227 88.062637,92.542175 
	C93.216675,83.820831 98.472275,75.157135 103.453537,66.338387 
	C104.278351,64.878151 103.919960,62.749592 104.108360,60.929886 
	C103.555664,60.863453 103.002968,60.797020 102.450272,60.730587 
	C94.585548,74.056274 86.720825,87.381958 78.856110,100.707619 
	C79.582092,101.127106 79.715225,101.271240 79.848740,101.271591 
	C88.670143,101.295280 97.494789,101.185318 106.310463,101.417114 
	C108.213776,101.467163 110.084824,102.744408 111.970734,103.456390 
	C111.789406,103.993393 111.608086,104.530403 111.426758,105.067406 
	C107.443085,105.067406 103.459419,105.067406 98.483597,105.067520 
M141.999115,134.475052 
	C144.081406,140.617645 148.703812,135.504379 152.769043,137.732407 
	C150.764954,133.002502 154.993057,127.723045 149.004852,125.608795 
	C147.421997,125.049934 145.084198,126.376900 143.227859,127.158211 
	C142.990570,127.258072 143.571625,129.302322 143.875748,131.024338 
	C143.638367,131.369904 142.832245,132.543442 141.999115,134.475052 
M24.201450,137.553909 
	C29.006245,136.751358 29.339542,133.174789 28.601385,129.588760 
	C27.140396,122.491119 21.761108,126.820534 18.215862,125.866920 
	C18.215862,131.177322 18.215862,136.045990 18.215862,140.914658 
	C18.607302,141.043976 18.998739,141.173294 19.390179,141.302612 
	C19.841543,140.390106 20.108784,139.287231 20.797979,138.620621 
	C21.439604,138.000031 22.530493,137.843948 24.201450,137.553909 
M165.104355,132.285339 
	C165.589767,136.441986 168.132462,137.852325 172.021240,137.469681 
	C175.509430,137.126450 176.803680,134.836334 176.909302,131.708282 
	C177.031815,128.080490 175.473663,125.536636 171.602341,125.288460 
	C167.352524,125.016029 165.151199,127.218941 165.104355,132.285339 
M186.049408,136.260712 
	C187.004715,136.151993 188.652725,136.309097 188.811737,135.894791 
	C191.311401,129.381302 188.024612,125.345345 181.223480,126.372223 
	C180.532928,126.476486 179.813019,126.386215 179.146301,126.386215 
	C179.146301,129.883957 179.146301,132.922836 179.146301,135.961716 
	C179.642807,136.034653 180.139313,136.107605 180.635803,136.180542 
	C180.998016,133.602905 181.360214,131.025269 181.893982,127.226685 
	C183.487015,128.260605 185.366760,128.809540 185.797195,129.920166 
	C186.414261,131.512283 185.973572,133.514343 186.049408,136.260712 
M60.977936,128.628342 
	C60.304825,128.717331 59.319454,129.130798 59.014465,128.837296 
	C57.893127,127.758148 56.997505,126.444450 55.722763,124.851341 
	C55.722763,129.641754 55.722763,133.242310 55.722763,137.618301 
	C57.040169,136.111130 58.437698,134.512314 59.708477,133.058502 
	C61.099331,134.467270 62.638027,136.025772 64.043999,137.449844 
	C64.043999,133.003098 64.043999,129.426987 64.043999,125.187691 
	C63.024483,126.190269 62.128288,127.071579 60.977936,128.628342 
M157.103851,128.997879 
	C161.006729,125.918938 156.212128,124.546074 156.301041,121.622940 
	C151.417145,126.377586 154.714111,131.242706 154.602814,135.717804 
	C154.588531,136.292297 157.161575,136.931152 158.206100,137.393997 
	C157.724426,134.181137 157.397766,132.002335 157.103851,128.997879 
M92.100471,133.164459 
	C92.100471,130.665878 92.100471,128.167297 92.100471,125.668709 
	C91.320717,125.617538 90.540970,125.566360 89.761215,125.515190 
	C89.566971,128.437454 89.221954,131.361847 89.263252,134.280777 
	C89.277039,135.254272 90.279739,136.213776 90.830368,137.179672 
	C91.253716,136.123047 91.677063,135.066422 92.100471,133.164459 
M66.936684,134.850616 
	C67.309151,135.616806 67.681625,136.382996 68.054092,137.149185 
	C68.658035,136.574860 69.745857,136.030121 69.783096,135.421158 
	C69.954216,132.622162 69.937431,129.797256 69.726021,127.001457 
	C69.683685,126.441620 68.498795,125.968163 66.942528,124.754295 
	C66.942528,128.511597 66.942528,131.258362 66.936684,134.850616 
M140.825882,130.516251 
	C141.184036,129.019226 141.542191,127.522209 141.900330,126.025185 
	C137.367508,128.010727 138.211945,131.927292 137.123215,135.126923 
	C137.686218,135.351959 138.249207,135.576996 138.812210,135.802048 
	C139.368622,134.293686 139.925049,132.785324 140.825882,130.516251 
z"/>
<path fill="#424242" opacity="1.000000" stroke="none" 
	d="
M201.000000,135.550018 
	C197.069977,138.075592 193.358444,138.654633 189.837143,134.204971 
	C191.499420,134.023499 192.690979,133.893417 193.840118,133.767975 
	C194.999893,124.034950 194.999893,124.034950 200.633667,126.987869 
	C201.000000,129.700012 201.000000,132.400024 201.000000,135.550018 
z"/>
<path fill="#2E2E2E" opacity="1.000000" stroke="none" 
	d="
M1.000001,135.333328 
	C2.545617,131.201263 4.091232,127.402534 6.209251,123.311234 
	C7.271811,123.055283 7.761965,123.091904 8.252119,123.128532 
	C7.258445,125.844643 6.264771,128.560745 5.301477,131.890991 
	C5.357233,132.683273 5.382608,132.861404 5.407982,133.039536 
	C4.199501,134.395584 2.991022,135.751633 1.391271,137.053833 
	C1.000000,136.555557 1.000000,136.111099 1.000001,135.333328 
z"/>
<path fill="#292929" opacity="1.000000" stroke="none" 
	d="
M98.979675,105.067459 
	C103.459419,105.067406 107.443085,105.067406 111.426758,105.067406 
	C111.608086,104.530403 111.789406,103.993393 111.970734,103.456390 
	C110.084824,102.744408 108.213776,101.467163 106.310463,101.417114 
	C97.494789,101.185318 88.670143,101.295280 79.848740,101.271591 
	C79.715225,101.271240 79.582092,101.127106 78.856110,100.707619 
	C86.720825,87.381958 94.585548,74.056274 102.450272,60.730587 
	C103.002968,60.797020 103.555664,60.863453 104.108360,60.929886 
	C103.919960,62.749592 104.278351,64.878151 103.453537,66.338387 
	C98.472275,75.157135 93.216675,83.820831 88.062637,92.542175 
	C87.248245,93.920227 86.483574,95.327667 85.695915,96.721512 
	C86.098724,97.129601 86.501541,97.537682 86.904358,97.945770 
	C88.295303,96.823227 90.114159,95.966843 91.005623,94.533623 
	C95.711227,86.968292 100.183128,79.257599 105.130646,70.933517 
	C113.533325,85.134781 121.519142,98.631500 129.600677,112.290001 
	C126.176071,113.878716 124.974190,111.980232 123.650192,109.712555 
	C117.716080,99.548996 111.663673,89.454506 105.653954,79.335091 
	C105.071533,79.442650 104.489113,79.550217 103.906693,79.657776 
	C104.200157,81.417770 104.039627,83.433502 104.862915,84.895050 
	C109.252632,92.687843 113.888458,100.342010 118.768913,108.602280 
	C102.263588,108.602280 86.295212,108.602280 70.326836,108.602280 
	C70.130333,108.251617 69.933830,107.900955 69.737320,107.550301 
	C71.496300,106.722717 73.233276,105.240601 75.018044,105.180634 
	C82.832344,104.918045 90.660477,105.067535 98.979675,105.067459 
z"/>
<path fill="#414141" opacity="1.000000" stroke="none" 
	d="
M33.457478,137.735397 
	C32.839996,138.824036 32.222515,139.912689 31.605032,141.001328 
	C31.203474,139.886261 30.498903,138.782822 30.455645,137.654022 
	C30.310221,133.859406 30.400358,130.055756 30.400358,126.282310 
	C40.569817,125.483421 40.569817,125.483421 41.995464,133.217682 
	C43.307423,131.869308 45.624527,131.169098 43.074310,129.013870 
	C44.374165,127.764259 45.818256,125.372696 46.942337,125.514687 
	C48.968868,125.770660 51.766708,127.127365 52.482182,128.784348 
	C53.438908,131.000046 52.718845,133.939758 52.718845,136.969757 
	C48.851845,136.215744 44.235550,140.091522 42.209034,134.397766 
	C40.245667,135.463120 38.276611,136.531570 35.698753,137.376038 
	C34.545795,137.346512 34.001637,137.540955 33.457478,137.735397 
M34.651428,135.092285 
	C37.804489,135.387665 38.925804,133.579544 38.418148,130.882919 
	C38.209320,129.773651 36.824196,128.885803 35.974121,127.897255 
	C35.058441,129.532852 34.016163,131.115356 33.296021,132.832932 
	C33.045330,133.430847 33.590919,134.362640 34.651428,135.092285 
z"/>
<path fill="#3E3E3E" opacity="1.000000" stroke="none" 
	d="
M142.012619,134.096008 
	C142.832245,132.543442 143.638367,131.369904 143.875748,131.024338 
	C143.571625,129.302322 142.990570,127.258072 143.227859,127.158211 
	C145.084198,126.376900 147.421997,125.049934 149.004852,125.608795 
	C154.993057,127.723045 150.764954,133.002502 152.769043,137.732407 
	C148.703812,135.504379 144.081406,140.617645 142.012619,134.096008 
z"/>
<path fill="#383838" opacity="1.000000" stroke="none" 
	d="
M23.812527,137.518646 
	C22.530493,137.843948 21.439604,138.000031 20.797979,138.620621 
	C20.108784,139.287231 19.841543,140.390106 19.390179,141.302612 
	C18.998739,141.173294 18.607302,141.043976 18.215862,140.914658 
	C18.215862,136.045990 18.215862,131.177322 18.215862,125.866920 
	C21.761108,126.820534 27.140396,122.491119 28.601385,129.588760 
	C29.339542,133.174789 29.006245,136.751358 23.812527,137.518646 
M22.214525,135.067291 
	C25.539936,135.286087 26.308624,133.169785 25.736080,130.608124 
	C25.501926,129.560471 23.922964,128.813385 22.955795,127.929573 
	C22.198416,129.526917 21.305780,131.079346 20.752695,132.744553 
	C20.542362,133.377823 21.112410,134.270294 22.214525,135.067291 
z"/>
<path fill="#3E3E3E" opacity="1.000000" stroke="none" 
	d="
M75.556671,132.420044 
	C74.308891,131.121628 72.887871,129.930740 71.958977,128.434372 
	C71.772377,128.133789 73.377686,125.990875 74.293747,125.885277 
	C76.300659,125.653900 78.427139,126.056450 80.416878,126.552658 
	C80.687752,126.620209 80.454193,128.710419 80.454193,130.378754 
	C80.615761,131.891876 80.837059,133.964523 81.058365,136.037155 
	C78.292519,136.172806 75.345650,136.946793 72.821251,136.230957 
	C70.984383,135.710068 70.767342,133.608810 74.218979,134.042267 
	C76.006378,134.577469 77.353539,134.723343 78.700691,134.869232 
	C78.752586,134.481766 78.804482,134.094284 78.856384,133.706818 
	C77.756477,133.277893 76.656578,132.848969 75.556671,132.420044 
M75.193314,128.298492 
	C76.195694,128.868301 77.198067,129.438126 78.200447,130.007935 
	C78.373886,129.550400 78.547325,129.092865 78.720764,128.635330 
	C77.804962,128.375626 76.889168,128.115936 75.193314,128.298492 
z"/>
<path fill="#363636" opacity="1.000000" stroke="none" 
	d="
M130.098984,130.270920 
	C130.712799,133.790604 130.115433,137.068390 125.986290,137.222382 
	C123.770744,137.305008 120.419609,136.059845 119.475502,134.360962 
	C118.020386,131.742523 117.875290,127.918053 121.426559,126.101952 
	C124.691994,124.432007 127.899460,124.750534 129.985886,129.060013 
	C130.040390,129.897217 130.069687,130.084061 130.098984,130.270920 
M122.262367,134.026825 
	C124.283440,135.679001 126.274940,135.954636 127.122444,133.069336 
	C127.522987,131.705704 127.069038,129.890503 126.451981,128.529343 
	C126.212151,128.000290 123.654175,127.784409 123.522705,128.065903 
	C122.773865,129.669418 122.438980,131.466263 122.262367,134.026825 
z"/>
<path fill="#3A3A3B" opacity="1.000000" stroke="none" 
	d="
M165.083435,131.888855 
	C165.151199,127.218941 167.352524,125.016029 171.602341,125.288460 
	C175.473663,125.536636 177.031815,128.080490 176.909302,131.708282 
	C176.803680,134.836334 175.509430,137.126450 172.021240,137.469681 
	C168.132462,137.852325 165.589767,136.441986 165.083435,131.888855 
M169.059845,134.538666 
	C171.749939,135.745209 173.886597,135.223724 173.772980,132.010681 
	C173.722321,130.577591 172.066666,128.078186 171.013306,128.009949 
	C167.573410,127.787094 168.034409,130.639862 168.212845,132.956848 
	C168.236725,133.266876 168.453125,133.562057 169.059845,134.538666 
z"/>
<path fill="#383838" opacity="1.000000" stroke="none" 
	d="
M186.016937,135.801056 
	C185.973572,133.514343 186.414261,131.512283 185.797195,129.920166 
	C185.366760,128.809540 183.487015,128.260605 181.893982,127.226685 
	C181.360214,131.025269 180.998016,133.602905 180.635803,136.180542 
	C180.139313,136.107605 179.642807,136.034653 179.146301,135.961716 
	C179.146301,132.922836 179.146301,129.883957 179.146301,126.386215 
	C179.813019,126.386215 180.532928,126.476486 181.223480,126.372223 
	C188.024612,125.345345 191.311401,129.381302 188.811737,135.894791 
	C188.652725,136.309097 187.004715,136.151993 186.016937,135.801056 
z"/>
<path fill="#2F3031" opacity="1.000000" stroke="none" 
	d="
M61.105015,128.290619 
	C62.128288,127.071579 63.024483,126.190269 64.043999,125.187691 
	C64.043999,129.426987 64.043999,133.003098 64.043999,137.449844 
	C62.638027,136.025772 61.099331,134.467270 59.708477,133.058502 
	C58.437698,134.512314 57.040169,136.111130 55.722763,137.618301 
	C55.722763,133.242310 55.722763,129.641754 55.722763,124.851341 
	C56.997505,126.444450 57.893127,127.758148 59.014465,128.837296 
	C59.319454,129.130798 60.304825,128.717331 61.105015,128.290619 
z"/>
<path fill="#383838" opacity="1.000000" stroke="none" 
	d="
M157.087494,129.410706 
	C157.397766,132.002335 157.724426,134.181137 158.206100,137.393997 
	C157.161575,136.931152 154.588531,136.292297 154.602814,135.717804 
	C154.714111,131.242706 151.417145,126.377586 156.301041,121.622940 
	C156.212128,124.546074 161.006729,125.918938 157.087494,129.410706 
z"/>
<path fill="#343434" opacity="1.000000" stroke="none" 
	d="
M8.491705,123.384773 
	C7.761965,123.091904 7.271811,123.055283 6.412881,123.016922 
	C10.515115,121.289932 10.955391,121.422646 12.363920,125.260605 
	C13.717949,128.950073 14.995668,132.667542 16.306919,136.372711 
	C15.968026,136.734451 15.629133,137.096176 15.290241,137.457916 
	C14.388739,136.557800 13.097897,135.815659 12.656878,134.728699 
	C11.184310,131.099365 10.016104,127.346535 8.491705,123.384773 
z"/>
<path fill="#414141" opacity="1.000000" stroke="none" 
	d="
M97.000885,126.997452 
	C99.371750,125.497345 101.814011,123.785080 104.068443,127.047974 
	C105.808159,129.565918 104.729744,135.949677 102.501556,137.085739 
	C99.866684,134.506958 105.101616,128.017517 97.425705,127.609619 
	C96.984734,127.331291 96.992805,127.164375 97.000885,126.997452 
z"/>
<path fill="#3C3C3C" opacity="1.000000" stroke="none" 
	d="
M113.896278,128.237061 
	C112.742264,128.106842 111.588257,127.976639 110.250946,127.825745 
	C109.854927,131.091202 109.470909,134.257645 109.086891,137.424103 
	C108.473694,137.325989 107.860504,137.227875 107.247307,137.129761 
	C107.247307,133.450119 107.247307,129.770477 107.248535,126.085190 
	C109.301987,125.815002 111.354210,125.550468 113.723679,125.887009 
	C113.992714,127.071083 113.944496,127.654068 113.896278,128.237061 
z"/>
<path fill="#393939" opacity="1.000000" stroke="none" 
	d="
M130.293945,129.819656 
	C130.069687,130.084061 130.040390,129.897217 129.984161,129.427979 
	C130.535904,128.009979 131.114563,126.874374 132.286392,124.574692 
	C134.048187,128.515137 135.497406,131.756500 137.048187,135.539185 
	C137.093307,136.364410 137.036850,136.648315 136.980392,136.932236 
	C135.725815,136.118652 134.182999,135.538712 133.287521,134.434036 
	C132.091599,132.958725 131.398163,131.076096 130.293945,129.819656 
z"/>
<path fill="#3C3C3C" opacity="1.000000" stroke="none" 
	d="
M97.005661,126.660828 
	C96.992805,127.164375 96.984734,127.331291 96.988174,127.748611 
	C96.999687,130.915787 96.999687,133.832550 96.999687,137.250427 
	C95.935524,136.928650 94.447960,136.723129 94.432228,136.436722 
	C94.253296,133.181213 94.263977,129.911850 94.400627,126.653603 
	C94.406754,126.507576 96.101974,126.432388 97.005661,126.660828 
z"/>
<path fill="#393939" opacity="1.000000" stroke="none" 
	d="
M92.100441,133.587128 
	C91.677063,135.066422 91.253716,136.123047 90.830368,137.179672 
	C90.279739,136.213776 89.277039,135.254272 89.263252,134.280777 
	C89.221954,131.361847 89.566971,128.437454 89.761215,125.515190 
	C90.540970,125.566360 91.320717,125.617538 92.100471,125.668709 
	C92.100471,128.167297 92.100471,130.665878 92.100441,133.587128 
z"/>
<path fill="#363636" opacity="1.000000" stroke="none" 
	d="
M66.939606,134.427887 
	C66.942528,131.258362 66.942528,128.511597 66.942528,124.754295 
	C68.498795,125.968163 69.683685,126.441620 69.726021,127.001457 
	C69.937431,129.797256 69.954216,132.622162 69.783096,135.421158 
	C69.745857,136.030121 68.658035,136.574860 68.054092,137.149185 
	C67.681625,136.382996 67.309151,135.616806 66.939606,134.427887 
z"/>
<path fill="#393939" opacity="1.000000" stroke="none" 
	d="
M113.958740,128.660156 
	C113.944496,127.654068 113.992714,127.071083 114.087875,126.051865 
	C115.124611,127.373230 116.486137,129.030060 116.997620,130.917282 
	C117.490189,132.734711 117.104179,134.790253 117.104179,136.774857 
	C114.378181,136.404968 114.378181,136.404968 113.958740,128.660156 
z"/>
<path fill="#343434" opacity="1.000000" stroke="none" 
	d="
M140.653687,130.896606 
	C139.925049,132.785324 139.368622,134.293686 138.812210,135.802048 
	C138.249207,135.576996 137.686218,135.351959 137.123215,135.126923 
	C138.211945,131.927292 137.367508,128.010727 141.900330,126.025185 
	C141.542191,127.522209 141.184036,129.019226 140.653687,130.896606 
z"/>
<path fill="#EBEBEB" opacity="1.000000" stroke="none" 
	d="
M5.651380,133.038025 
	C5.382608,132.861404 5.357233,132.683273 5.324244,132.235352 
	C5.737336,132.127243 6.158042,132.288910 6.578751,132.450592 
	C6.350760,132.645905 6.122768,132.841217 5.651380,133.038025 
z"/>
<path fill="#343434" opacity="1.000000" stroke="none" 
	d="
M137.386292,136.988098 
	C137.036850,136.648315 137.093307,136.364410 137.390213,135.711761 
	C137.684525,135.910004 137.738358,136.476974 137.386292,136.988098 
z"/>
<path fill="#E4E4E4" opacity="1.000000" stroke="none" 
	d="
M34.007095,137.745544 
	C34.001637,137.540955 34.545795,137.346512 35.369690,137.393234 
	C35.285191,137.674820 34.920952,137.715271 34.007095,137.745544 
z"/>
<path fill="#E4E4E4" opacity="1.000000" stroke="none" 
	d="
M34.212135,135.117111 
	C33.590919,134.362640 33.045330,133.430847 33.296021,132.832932 
	C34.016163,131.115356 35.058441,129.532852 35.974121,127.897255 
	C36.824196,128.885803 38.209320,129.773651 38.418148,130.882919 
	C38.925804,133.579544 37.804489,135.387665 34.212135,135.117111 
z"/>
<path fill="#F2F2F2" opacity="1.000000" stroke="none" 
	d="
M21.770657,135.055969 
	C21.112410,134.270294 20.542362,133.377823 20.752695,132.744553 
	C21.305780,131.079346 22.198416,129.526917 22.955795,127.929573 
	C23.922964,128.813385 25.501926,129.560471 25.736080,130.608124 
	C26.308624,133.169785 25.539936,135.286087 21.770657,135.055969 
z"/>
<path fill="#FEFEFE" opacity="1.000000" stroke="none" 
	d="
M75.240479,132.759644 
	C76.656578,132.848969 77.756477,133.277893 78.856384,133.706818 
	C78.804482,134.094284 78.752586,134.481766 78.700691,134.869232 
	C77.353539,134.723343 76.006378,134.577469 74.490662,134.118469 
	C74.522820,133.569962 74.723549,133.334595 75.240479,132.759644 
z"/>
<path fill="#FEFEFE" opacity="1.000000" stroke="none" 
	d="
M75.583344,128.077362 
	C76.889168,128.115936 77.804962,128.375626 78.720764,128.635330 
	C78.547325,129.092865 78.373886,129.550400 78.200447,130.007935 
	C77.198067,129.438126 76.195694,128.868301 75.583344,128.077362 
z"/>
<path fill="#F2F2F2" opacity="1.000000" stroke="none" 
	d="
M122.112869,133.612091 
	C122.438980,131.466263 122.773865,129.669418 123.522705,128.065903 
	C123.654175,127.784409 126.212151,128.000290 126.451981,128.529343 
	C127.069038,129.890503 127.522987,131.705704 127.122444,133.069336 
	C126.274940,135.954636 124.283440,135.679001 122.112869,133.612091 
z"/>
<path fill="#F2F2F2" opacity="1.000000" stroke="none" 
	d="
M168.820114,134.201385 
	C168.453125,133.562057 168.236725,133.266876 168.212845,132.956848 
	C168.034409,130.639862 167.573410,127.787094 171.013306,128.009949 
	C172.066666,128.078186 173.722321,130.577591 173.772980,132.010681 
	C173.886597,135.223724 171.749939,135.745209 168.820114,134.201385 
z"/>
</svg>