<svg version="1.1" id="Layer_1" xmlns="http://www.w3.org/2000/svg" xmlns:xlink="http://www.w3.org/1999/xlink" x="0px" y="0px"
	 width="100%" viewBox="0 0 3000 3000" enable-background="new 0 0 3000 3000" xml:space="preserve">
<path fill="#FFFFFF" opacity="1.000000" stroke="none" 
	d="
M1442.000000,3002.000000 
	C961.333435,3002.000000 481.666840,3002.000000 2.000193,3002.000000 
	C2.000129,2002.000244 2.000129,1002.000549 2.000064,2.000596 
	C1001.999573,2.000397 2001.999146,2.000397 3001.999023,2.000199 
	C3001.999512,1001.999329 3001.999512,2001.998657 3001.999756,3001.999023 
	C2482.333252,3002.000000 1962.666626,3002.000000 1442.000000,3002.000000 
M1704.652954,1979.807251 
	C1772.294800,1852.717651 1839.961914,1725.641602 1907.568604,1598.533447 
	C1944.498169,1529.101807 1981.985718,1459.956299 2018.018311,1390.061401 
	C2055.887207,1316.604370 2092.248291,1242.370850 2129.505615,1168.596436 
	C2132.676758,1162.316895 2132.913574,1157.412598 2129.518066,1151.068237 
	C2092.565186,1082.020142 2055.916016,1012.809570 2019.150024,943.661316 
	C2017.978882,941.458679 2016.442993,939.449829 2014.475708,936.426392 
	C2012.240845,940.169006 2010.448853,942.897095 2008.922485,945.766357 
	C1956.019531,1045.212891 1903.147461,1144.675903 1850.259033,1244.130249 
	C1738.380005,1454.514404 1626.465332,1664.879639 1514.754517,1875.353027 
	C1511.466797,1881.547485 1507.799316,1883.790161 1500.851318,1883.730347 
	C1463.187622,1883.405273 1425.519775,1883.571289 1387.853271,1883.571411 
	C1121.854736,1883.571777 855.856262,1883.573120 589.857727,1883.574097 
	C585.966003,1883.574097 582.074280,1883.573975 577.837585,1883.573975 
	C577.837585,1629.717163 577.837585,1377.213013 577.837585,1123.515259 
	C582.597168,1123.515259 586.835815,1123.515381 591.074402,1123.515381 
	C868.072876,1123.515625 1145.071289,1123.492554 1422.069702,1123.645508 
	C1429.218384,1123.649536 1434.445190,1121.951904 1439.657227,1116.705933 
	C1497.450928,1058.536133 1555.511353,1000.631409 1613.491821,942.647095 
	C1615.976440,940.162231 1618.384277,937.600525 1622.032227,933.829956 
	C1209.223022,933.829956 798.455444,933.829956 387.544495,933.829956 
	C387.544495,1313.974243 387.544495,1693.471680 387.544495,2073.764160 
	C391.795227,2073.764160 395.402863,2073.764404 399.010498,2073.764404 
	C684.675598,2073.764160 970.340637,2073.763428 1256.005737,2073.763184 
	C1385.338379,2073.763184 1514.671143,2073.671631 1644.003052,2073.977295 
	C1652.271118,2073.996826 1656.338623,2071.225586 1659.974365,2064.166016 
	C1674.315918,2036.318604 1689.259399,2008.781128 1704.652954,1979.807251 
M2072.738525,1445.540283 
	C2068.818115,1453.636963 2065.234619,1461.921387 2060.863770,1469.767334 
	C2057.721191,1475.408813 2058.304443,1479.925659 2061.298096,1485.518188 
	C2092.906494,1544.563843 2124.167725,1603.795410 2155.702881,1662.880493 
	C2163.854492,1678.153687 2159.303467,1675.737305 2177.664795,1675.643433 
	C2236.981445,1675.340576 2296.297363,1674.819946 2355.612793,1674.294189 
	C2362.880859,1674.229736 2371.561768,1675.947388 2377.012451,1672.620117 
	C2382.503418,1669.267944 2384.445801,1660.423828 2388.568359,1654.414795 
	C2392.328125,1648.934326 2391.539062,1644.485107 2388.537109,1638.848999 
	C2318.679199,1507.687134 2249.017090,1376.421387 2179.287598,1245.191284 
	C2178.003174,1242.773926 2176.339600,1240.558228 2174.114990,1237.102295 
	C2140.098877,1307.090088 2106.772217,1375.658447 2072.738525,1445.540283 
M2238.372559,1818.901855 
	C2248.071533,1837.140137 2257.854736,1855.334473 2267.387939,1873.658936 
	C2269.007568,1876.772095 2270.455078,1880.441895 2270.461914,1883.857666 
	C2270.577881,1942.514404 2270.454590,2001.171753 2270.384766,2059.828857 
	C2270.380371,2063.390137 2270.384277,2066.951172 2270.384277,2070.841309 
	C2278.052979,2070.841309 2284.501465,2070.841309 2292.013672,2070.841309 
	C2292.013672,2007.360474 2292.013672,1944.539185 2292.013672,1881.669434 
	C2296.289795,1881.669434 2299.489990,1881.669434 2303.852051,1881.669434 
	C2303.852051,1945.055786 2303.852051,2007.859985 2303.852051,2070.325439 
	C2308.831787,2072.115479 2311.577393,2071.672119 2311.731445,2066.802734 
	C2311.804932,2064.471680 2311.770264,2062.137207 2311.770264,2059.804199 
	C2311.772949,2004.143677 2311.773438,1948.483276 2311.774414,1892.822754 
	C2311.774658,1889.253540 2311.774414,1885.684204 2311.774414,1881.646118 
	C2318.364746,1881.646118 2323.821533,1881.646118 2330.329346,1881.646118 
	C2330.329346,1885.810913 2330.329102,1889.387695 2330.329346,1892.964478 
	C2330.330078,1948.291626 2330.331055,2003.618652 2330.334229,2058.945801 
	C2330.334473,2061.612061 2330.264893,2064.282471 2330.388428,2066.943604 
	C2330.618164,2071.893311 2333.505127,2071.902832 2338.133057,2070.537109 
	C2338.133057,2059.849121 2338.133301,2049.257324 2338.133301,2038.665405 
	C2338.133301,2028.333252 2338.133301,2018.001099 2338.133301,2007.668945 
	C2338.133301,1997.003418 2338.133301,1986.338013 2338.133301,1975.672485 
	C2338.133301,1965.006958 2338.133301,1954.341553 2338.133301,1943.676025 
	C2338.133301,1933.343872 2338.029541,1923.010376 2338.162354,1912.679932 
	C2338.295654,1902.307861 2337.546631,1891.866333 2338.942871,1879.073975 
	C2341.675049,1882.156982 2343.209961,1883.102173 2343.409668,1884.275024 
	C2343.852295,1886.872192 2343.663330,1889.583740 2343.663574,1892.248535 
	C2343.672363,1948.242310 2343.662842,2004.235962 2343.694092,2060.229736 
	C2343.696045,2063.747314 2344.001221,2067.265137 2344.172607,2070.934814 
	C2351.103271,2070.934814 2356.949463,2070.934814 2363.998047,2070.934814 
	C2363.998047,2066.823975 2363.998047,2063.268799 2363.998047,2059.713623 
	C2363.998535,2004.053223 2363.995605,1948.392700 2364.009521,1892.732300 
	C2364.010254,1889.736450 2363.939941,1886.710571 2364.357910,1883.762939 
	C2364.485352,1882.862793 2366.241699,1881.444458 2367.065918,1881.562622 
	C2368.398193,1881.753662 2370.455078,1882.849121 2370.652588,1883.864868 
	C2371.217285,1886.766357 2371.076904,1889.820068 2371.077881,1892.813965 
	C2371.093994,1948.807739 2371.085205,2004.801392 2371.104736,2060.795166 
	C2371.105713,2063.784424 2370.933594,2066.850830 2371.527100,2069.740967 
	C2372.120850,2072.633789 2374.133545,2074.200439 2378.110596,2072.411133 
	C2378.110596,2051.357178 2378.110596,2030.069214 2378.110596,2008.781250 
	C2378.110596,1987.450317 2377.942139,1966.117676 2378.158691,1944.788940 
	C2378.371582,1923.819580 2377.206787,1902.791016 2379.036621,1880.126831 
	C2385.104980,1883.978271 2383.521729,1888.296875 2383.527832,1891.737305 
	C2383.631592,1948.730835 2383.593018,2005.724365 2383.620605,2062.718018 
	C2383.622314,2066.221191 2383.908203,2069.724609 2384.060791,2073.203125 
	C2391.341797,2073.203125 2397.516357,2073.203125 2404.693359,2073.203125 
	C2404.693359,2009.134155 2404.693359,1945.649658 2404.693359,1881.744141 
	C2409.167725,1881.744141 2412.619385,1881.744141 2417.126953,1881.744141 
	C2417.126953,1945.886963 2417.126953,2009.383179 2417.126953,2073.122559 
	C2424.320801,2073.122559 2430.434570,2073.122559 2437.624756,2073.122559 
	C2437.624756,2008.985229 2437.624756,1945.510620 2437.624756,1881.707031 
	C2444.520752,1881.707031 2450.315674,1881.707031 2457.089844,1881.707031 
	C2457.089844,1945.865967 2457.089844,2009.376099 2457.089844,2073.003418 
	C2460.682373,2073.684082 2463.499023,2074.686035 2464.014404,2070.564209 
	C2464.342773,2067.936279 2464.201172,2065.244385 2464.201660,2062.581299 
	C2464.209961,2005.921021 2464.208740,1949.260620 2464.209229,1892.600342 
	C2464.209229,1889.043579 2464.209229,1885.486938 2464.209229,1881.769531 
	C2469.012939,1881.769531 2472.495605,1881.769531 2477.000977,1881.769531 
	C2477.000977,1945.948242 2477.000977,2009.445312 2477.000977,2072.918945 
	C2484.467773,2072.918945 2490.865234,2072.918945 2497.789795,2072.918945 
	C2497.789795,2063.071777 2497.789795,2054.096191 2497.789795,2045.120728 
	C2497.789795,2035.788452 2497.789795,2026.456055 2497.789795,2017.123779 
	C2497.789795,2008.124756 2497.789795,1999.125854 2497.789795,1990.126831 
	C2497.789795,1981.127808 2497.789795,1972.128906 2497.789795,1963.129883 
	C2497.789795,1954.130859 2497.789795,1945.131958 2497.789795,1936.132935 
	C2497.789795,1926.800659 2497.697021,1917.467041 2497.816895,1908.136353 
	C2497.929688,1899.359863 2497.230713,1890.513184 2498.631104,1879.663940 
	C2501.139404,1882.405273 2502.719482,1883.334351 2502.889893,1884.474487 
	C2503.330078,1887.414062 2503.202881,1890.446777 2503.203613,1893.442383 
	C2503.215088,1949.769409 2503.212891,2006.096313 2503.213135,2062.423340 
	C2503.213135,2065.960449 2503.212891,2069.497559 2503.212891,2073.759033 
	C2506.383301,2073.458252 2508.220947,2073.283691 2510.775635,2073.041260 
	C2510.775635,2069.011230 2510.775635,2065.382324 2510.775635,2061.753662 
	C2510.775879,2004.760010 2510.792969,1947.766357 2510.744629,1890.772705 
	C2510.740723,1886.117920 2510.192139,1881.423584 2516.286377,1879.449219 
	C2489.905273,1829.815430 2463.876465,1780.843628 2437.005127,1730.287598 
	C2432.998047,1737.510010 2429.434082,1742.780151 2427.036133,1748.536011 
	C2423.729736,1756.472534 2418.456787,1758.539307 2410.010742,1758.489014 
	C2346.020020,1758.106812 2282.026367,1758.275024 2218.033447,1758.293213 
	C2214.614014,1758.294189 2211.194580,1758.489868 2206.468750,1758.634888 
	C2217.470459,1779.395386 2227.588623,1798.488281 2238.372559,1818.901855 
M2145.606689,1991.000000 
	C2145.606689,1954.870972 2145.606689,1918.741821 2145.606689,1882.365723 
	C2137.953857,1882.365723 2131.792969,1882.365723 2125.291016,1882.365723 
	C2125.291016,1945.650757 2125.291016,2008.338013 2125.291016,2071.204102 
	C2132.203125,2071.204102 2138.362549,2071.204102 2145.606445,2071.204102 
	C2145.606445,2044.743774 2145.606445,2018.871948 2145.606689,1991.000000 
M2205.627686,1901.148682 
	C2205.499268,1894.959961 2205.370605,1888.771362 2205.243164,1882.644775 
	C2197.708008,1882.644775 2191.302002,1882.644775 2184.981689,1882.644775 
	C2184.981689,1945.958862 2184.981689,2008.421753 2184.981689,2070.819336 
	C2192.166992,2070.819336 2198.589355,2070.819336 2204.740234,2070.819336 
	C2205.180908,2069.322754 2205.529297,2068.691650 2205.529785,2068.059814 
	C2205.579590,2013.074585 2205.602539,1958.089355 2205.627686,1901.148682 
M2158.020508,2007.000000 
	C2158.020508,2028.212036 2158.020508,2049.424072 2158.020508,2071.039795 
	C2160.725830,2071.346680 2162.312012,2071.657715 2163.902344,2071.681885 
	C2168.510742,2071.751953 2173.120850,2071.707031 2177.527832,2071.707031 
	C2179.691406,2061.879150 2179.491699,1890.226074 2177.492920,1882.678955 
	C2171.329102,1882.678955 2165.164307,1882.678955 2158.020508,1882.678955 
	C2158.020508,1923.893677 2158.020508,1964.446777 2158.020508,2007.000000 
M2091.366699,1899.270142 
	C2091.366699,1956.439941 2091.366699,2013.609741 2091.366699,2071.168457 
	C2098.562988,2071.168457 2104.708984,2071.168457 2110.738770,2071.168457 
	C2112.857910,2060.391113 2112.486084,1889.854126 2110.442627,1882.759033 
	C2104.323975,1882.759033 2098.220459,1882.759033 2091.366943,1882.759033 
	C2091.366943,1888.122925 2091.366943,1892.739258 2091.366699,1899.270142 
M2543.872803,2007.000000 
	C2543.872803,1991.038208 2543.030762,1975.020386 2544.090820,1959.129272 
	C2545.354248,1940.189331 2542.005127,1922.925415 2531.112061,1907.232300 
	C2528.878662,1904.014282 2527.240234,1900.383179 2525.327637,1896.942383 
	C2524.860840,1897.212280 2524.394043,1897.482300 2523.927246,1897.752197 
	C2523.927246,1956.161621 2523.927246,2014.571045 2523.927246,2073.188965 
	C2530.584229,2073.188965 2536.731934,2073.188965 2543.872559,2073.188965 
	C2543.872559,2051.397949 2543.872559,2030.198975 2543.872803,2007.000000 
M2031.257812,1973.001221 
	C2031.257690,1983.973755 2031.257446,1994.946411 2031.257446,2005.918945 
	C2031.257324,2016.891479 2031.204712,2027.864502 2031.272461,2038.836548 
	C2031.339111,2049.647217 2030.968872,2060.485352 2031.517822,2071.118652 
	C2039.063599,2071.118652 2045.207275,2071.118652 2052.156494,2071.118652 
	C2052.156494,2067.493896 2052.162354,2064.557129 2052.155518,2061.620361 
	C2052.040527,2013.417480 2051.925049,1965.214600 2051.778564,1917.011841 
	C2051.778076,1916.815063 2051.343750,1916.593994 2051.083008,1916.430664 
	C2050.808105,1916.258545 2050.498535,1916.141968 2048.878662,1915.366943 
	C2044.728271,1919.857178 2040.425415,1924.908203 2035.684692,1929.507935 
	C2032.284668,1932.807129 2031.079712,1936.452393 2031.183838,1941.078857 
	C2031.408203,1951.048950 2031.256348,1961.027344 2031.257812,1973.001221 
M1971.676025,2040.980591 
	C1972.107544,2051.084961 1970.769531,2061.286377 1972.493530,2071.708008 
	C1981.784912,2071.479492 1990.285278,2072.947754 1998.654297,2070.865479 
	C1998.654297,2036.583984 1998.654297,2002.938477 1998.654297,1967.378906 
	C1990.612427,1975.479370 1984.047852,1982.430298 1977.092896,1988.966187 
	C1973.162842,1992.659424 1971.395996,1996.596680 1971.558960,2002.085938 
	C1971.923950,2014.376343 1971.675293,2026.685181 1971.676025,2040.980591 
M2025.938232,2036.996948 
	C2025.939819,2009.089355 2025.952148,1981.181641 2025.928467,1953.274048 
	C2025.925659,1949.960205 2025.738159,1946.645996 2025.585815,1943.334351 
	C2025.576660,1943.135864 2025.133179,1942.926392 2024.860840,1942.779541 
	C2024.585571,1942.630981 2024.271606,1942.553955 2023.029175,1942.100464 
	C2019.221558,1946.076172 2015.366577,1950.655029 2010.933838,1954.581787 
	C2006.053467,1958.904907 2004.322998,1963.818604 2004.387695,1970.355713 
	C2004.689453,2000.918213 2004.509521,2031.485474 2004.548462,2062.051025 
	C2004.552124,2064.957275 2004.880249,2067.863281 2005.087280,2071.251953 
	C2012.109131,2071.251953 2018.523193,2071.251953 2025.938232,2071.251953 
	C2025.938232,2060.098877 2025.938232,2049.547119 2025.938232,2036.996948 
M2230.448242,1993.000000 
	C2230.448242,2018.894531 2230.448242,2044.789185 2230.448242,2071.188477 
	C2233.667236,2071.188477 2235.802734,2071.188477 2238.213379,2071.188477 
	C2238.213379,2007.914551 2238.213379,1945.165161 2238.213379,1882.416016 
	C2230.574463,1882.414917 2230.468262,1882.414795 2230.458984,1890.111938 
	C2230.418701,1923.741333 2230.445801,1957.370605 2230.448242,1993.000000 
M2265.291016,1893.635498 
	C2265.287109,1891.307007 2265.356201,1888.975708 2265.264648,1886.650757 
	C2265.050781,1881.215820 2262.084717,1881.013428 2257.602295,1882.704956 
	C2257.460449,1885.531616 2257.215576,1888.147095 2257.214600,1890.762695 
	C2257.194580,1947.977539 2257.201416,2005.192383 2257.204346,2062.407227 
	C2257.204346,2064.070557 2257.147461,2065.737549 2257.239502,2067.396240 
	C2257.522705,2072.496582 2260.525146,2072.283936 2265.290039,2070.587891 
	C2265.290039,2012.398193 2265.290039,1953.939819 2265.291016,1893.635498 
M2210.689209,1915.007690 
	C2210.688965,1963.250244 2210.688721,2011.492798 2210.689941,2059.735352 
	C2210.689941,2062.064209 2210.675049,2064.393555 2210.716797,2066.721924 
	C2210.816406,2072.256836 2213.874756,2072.470215 2218.344238,2070.842041 
	C2218.344238,2007.996460 2218.344238,1945.261108 2218.344238,1882.653931 
	C2213.293945,1880.743652 2210.691650,1881.846680 2210.696777,1887.062256 
	C2210.705566,1895.712646 2210.693115,1904.363037 2210.689209,1915.007690 
M2077.610107,1982.999023 
	C2077.610107,2012.248413 2077.610107,2041.497681 2077.610107,2071.187744 
	C2080.778320,2071.187744 2082.905273,2071.187744 2084.942383,2071.187744 
	C2087.148682,2057.120361 2086.395264,1889.236816 2084.123291,1882.474731 
	C2077.619141,1883.917114 2077.591064,1888.912964 2077.595703,1894.022217 
	C2077.622070,1923.014404 2077.609619,1952.006714 2077.610107,1982.999023 
M2072.461182,1896.290649 
	C2071.634521,1895.756226 2070.383545,1894.566895 2070.044922,1894.786133 
	C2065.367676,1897.816162 2064.393311,1902.292847 2064.409424,1907.698364 
	C2064.564697,1959.921753 2064.493896,2012.145752 2064.536377,2064.369629 
	C2064.538330,2066.607666 2065.017578,2068.844971 2065.343018,2071.681396 
	C2067.911377,2071.400391 2069.974854,2071.174561 2072.521240,2070.895996 
	C2072.521240,2012.725586 2072.521240,1955.207031 2072.461182,1896.290649 
M2314.567139,1743.712646 
	C2318.598877,1743.542480 2319.373779,1740.786377 2319.404541,1737.524414 
	C2319.451416,1732.526855 2319.360107,1727.527222 2319.459229,1722.531128 
	C2319.540283,1718.454590 2319.813721,1714.381958 2320.110352,1707.962646 
	C2328.934570,1715.879272 2335.793701,1722.012695 2342.629639,1728.171875 
	C2349.412109,1734.282593 2356.170898,1740.419189 2362.773438,1746.393799 
	C2364.069092,1745.316528 2364.546387,1745.107178 2364.549805,1744.890137 
	C2364.833008,1727.628174 2365.295898,1710.364502 2365.209717,1693.103760 
	C2365.179688,1687.062012 2360.856934,1687.761597 2355.335938,1689.268188 
	C2355.335938,1700.684937 2355.335938,1712.040405 2355.335938,1725.618408 
	C2339.572998,1711.254028 2325.714600,1698.625366 2311.829102,1685.971680 
	C2310.722168,1687.354614 2310.013672,1687.826782 2310.010010,1688.304321 
	C2309.878174,1705.288574 2309.735596,1722.273926 2309.874268,1739.256958 
	C2309.885986,1740.722290 2311.820068,1742.171875 2314.567139,1743.712646 
M2240.077881,1687.973877 
	C2233.938965,1687.888672 2230.779541,1691.380615 2228.311523,1697.349609 
	C2237.057617,1697.770264 2244.828613,1698.143921 2253.794434,1698.575073 
	C2253.794434,1706.851685 2253.794678,1714.088379 2253.794678,1721.325073 
	C2253.794678,1728.527100 2253.794434,1735.729004 2253.794434,1743.608765 
	C2257.705322,1743.437744 2260.165527,1743.330200 2263.260742,1743.194824 
	C2264.392090,1727.899536 2262.854736,1713.040405 2264.156738,1698.735229 
	C2273.700195,1696.415527 2284.839355,1701.633545 2289.223145,1687.968140 
	C2272.976318,1687.968140 2257.426514,1687.968140 2240.077881,1687.973877 
M1966.235474,2039.001953 
	C1966.235474,2026.893311 1966.235474,2014.784790 1966.235474,2001.567261 
	C1956.090820,2008.586426 1949.920654,2015.534790 1951.375488,2027.634033 
	C1952.475464,2036.782104 1951.595215,2046.168335 1951.595825,2055.448486 
	C1951.596191,2060.643311 1951.595825,2065.838135 1951.595825,2071.214111 
	C1956.990845,2071.214111 1961.117554,2071.214111 1966.235596,2071.214111 
	C1966.235596,2060.729492 1966.235596,2050.862793 1966.235474,2039.001953 
M2563.505371,1991.161377 
	C2563.505127,2015.141724 2563.502441,2039.121948 2563.508057,2063.102295 
	C2563.508545,2065.432861 2563.359131,2067.786621 2563.627686,2070.089111 
	C2564.150391,2074.567627 2566.879883,2074.331055 2570.160889,2072.876221 
	C2570.417480,2071.884766 2570.874268,2070.939941 2570.875732,2069.994385 
	C2570.917969,2042.351440 2570.939209,2014.708496 2570.899414,1987.065552 
	C2570.890869,1981.299316 2568.795898,1976.362427 2563.506104,1970.847534 
	C2563.506104,1978.084351 2563.506104,1983.664062 2563.505371,1991.161377 
M2583.715088,2023.106079 
	C2583.469482,2013.389771 2585.482666,2003.113525 2576.320068,1994.524048 
	C2576.320068,2021.189941 2576.320068,2046.910034 2576.320068,2072.577148 
	C2583.354248,2073.767334 2583.610596,2073.770020 2583.674072,2067.863525 
	C2583.827881,2053.602295 2583.718262,2039.338013 2583.715088,2023.106079 
M2596.560059,2047.458740 
	C2596.560059,2055.989746 2596.560059,2064.520508 2596.560059,2073.297119 
	C2604.583496,2073.297119 2611.316406,2073.297119 2618.252686,2073.297119 
	C2614.354492,2061.763428 2601.700439,2038.911621 2596.559326,2034.354614 
	C2596.559326,2038.427612 2596.559326,2042.039551 2596.560059,2047.458740 
M1925.943237,2051.874268 
	C1925.738647,2049.079590 1925.534180,2046.284790 1925.183105,2041.488403 
	C1914.872803,2052.008789 1906.008057,2061.053955 1895.812134,2071.457520 
	C1907.163940,2072.086670 1916.221313,2072.744629 1925.940674,2071.091064 
	C1925.940674,2064.884033 1925.940674,2059.260010 1925.943237,2051.874268 
M1941.157715,2071.727783 
	C1943.725952,2072.102051 1946.171143,2071.768066 1946.195801,2068.598145 
	C1946.314453,2053.381104 1946.249023,2038.162354 1946.249023,2022.335083 
	C1940.913574,2024.368408 1939.065063,2027.564575 1939.126465,2031.910278 
	C1939.309692,2044.860840 1939.585571,2057.810303 1941.157715,2071.727783 
z"/>
<path fill="#264A64" opacity="1.000000" stroke="none" 
	d="
M1704.316162,1980.468018 
	C1689.259399,2008.781128 1674.315918,2036.318604 1659.974365,2064.166016 
	C1656.338623,2071.225586 1652.271118,2073.996826 1644.003052,2073.977295 
	C1514.671143,2073.671631 1385.338379,2073.763184 1256.005737,2073.763184 
	C970.340637,2073.763428 684.675598,2073.764160 399.010498,2073.764404 
	C395.402863,2073.764404 391.795227,2073.764160 387.544495,2073.764160 
	C387.544495,1693.471680 387.544495,1313.974243 387.544495,933.829956 
	C798.455444,933.829956 1209.223022,933.829956 1622.032227,933.829956 
	C1618.384277,937.600525 1615.976440,940.162231 1613.491821,942.647095 
	C1555.511353,1000.631409 1497.450928,1058.536133 1439.657227,1116.705933 
	C1434.445190,1121.951904 1429.218384,1123.649536 1422.069702,1123.645508 
	C1145.071289,1123.492554 868.072876,1123.515625 591.074402,1123.515381 
	C586.835815,1123.515381 582.597168,1123.515259 577.837585,1123.515259 
	C577.837585,1377.213013 577.837585,1629.717163 577.837585,1883.573975 
	C582.074280,1883.573975 585.966003,1883.574097 589.857727,1883.574097 
	C855.856262,1883.573120 1121.854736,1883.571777 1387.853271,1883.571411 
	C1425.519775,1883.571289 1463.187622,1883.405273 1500.851318,1883.730347 
	C1507.799316,1883.790161 1511.466797,1881.547485 1514.754517,1875.353027 
	C1626.465332,1664.879639 1738.380005,1454.514404 1850.259033,1244.130249 
	C1903.147461,1144.675903 1956.019531,1045.212891 2008.922485,945.766357 
	C2010.448853,942.897095 2012.240845,940.169006 2014.475708,936.426392 
	C2016.442993,939.449829 2017.978882,941.458679 2019.150024,943.661316 
	C2055.916016,1012.809570 2092.565186,1082.020142 2129.518066,1151.068237 
	C2132.913574,1157.412598 2132.676758,1162.316895 2129.505615,1168.596436 
	C2092.248291,1242.370850 2055.887207,1316.604370 2018.018311,1390.061401 
	C1981.985718,1459.956299 1944.498169,1529.101807 1907.568604,1598.533447 
	C1839.961914,1725.641602 1772.294800,1852.717651 1704.316162,1980.468018 
z"/>
<path fill="#264A64" opacity="1.000000" stroke="none" 
	d="
M2073.092285,1444.883545 
	C2106.772217,1375.658447 2140.098877,1307.090088 2174.114990,1237.102295 
	C2176.339600,1240.558228 2178.003174,1242.773926 2179.287598,1245.191284 
	C2249.017090,1376.421387 2318.679199,1507.687134 2388.537109,1638.848999 
	C2391.539062,1644.485107 2392.328125,1648.934326 2388.568359,1654.414795 
	C2384.445801,1660.423828 2382.503418,1669.267944 2377.012451,1672.620117 
	C2371.561768,1675.947388 2362.880859,1674.229736 2355.612793,1674.294189 
	C2296.297363,1674.819946 2236.981445,1675.340576 2177.664795,1675.643433 
	C2159.303467,1675.737305 2163.854492,1678.153687 2155.702881,1662.880493 
	C2124.167725,1603.795410 2092.906494,1544.563843 2061.298096,1485.518188 
	C2058.304443,1479.925659 2057.721191,1475.408813 2060.863770,1469.767334 
	C2065.234619,1461.921387 2068.818115,1453.636963 2073.092285,1444.883545 
z"/>
<path fill="#2B4D67" opacity="1.000000" stroke="none" 
	d="
M2238.039551,1818.241455 
	C2227.588623,1798.488281 2217.470459,1779.395386 2206.468750,1758.634888 
	C2211.194580,1758.489868 2214.614014,1758.294189 2218.033447,1758.293213 
	C2282.026367,1758.275024 2346.020020,1758.106812 2410.010742,1758.489014 
	C2418.456787,1758.539307 2423.729736,1756.472534 2427.036133,1748.536011 
	C2429.434082,1742.780151 2432.998047,1737.510010 2437.005127,1730.287598 
	C2463.876465,1780.843628 2489.905273,1829.815430 2516.286377,1879.449219 
	C2510.192139,1881.423584 2510.740723,1886.117920 2510.744629,1890.772705 
	C2510.792969,1947.766357 2510.775879,2004.760010 2510.775635,2061.753662 
	C2510.775635,2065.382324 2510.775635,2069.011230 2510.775635,2073.041260 
	C2508.220947,2073.283691 2506.383301,2073.458252 2503.212891,2073.759033 
	C2503.212891,2069.497559 2503.213135,2065.960449 2503.213135,2062.423340 
	C2503.212891,2006.096313 2503.215088,1949.769409 2503.203613,1893.442383 
	C2503.202881,1890.446777 2503.330078,1887.414062 2502.889893,1884.474487 
	C2502.719482,1883.334351 2501.139404,1882.405273 2498.631104,1879.663940 
	C2497.230713,1890.513184 2497.929688,1899.359863 2497.816895,1908.136353 
	C2497.697021,1917.467041 2497.789795,1926.800659 2497.789795,1936.132935 
	C2497.789795,1945.131958 2497.789795,1954.130859 2497.789795,1963.129883 
	C2497.789795,1972.128906 2497.789795,1981.127808 2497.789795,1990.126831 
	C2497.789795,1999.125854 2497.789795,2008.124756 2497.789795,2017.123779 
	C2497.789795,2026.456055 2497.789795,2035.788452 2497.789795,2045.120728 
	C2497.789795,2054.096191 2497.789795,2063.071777 2497.789795,2072.918945 
	C2490.865234,2072.918945 2484.467773,2072.918945 2477.000977,2072.918945 
	C2477.000977,2009.445312 2477.000977,1945.948242 2477.000977,1881.769531 
	C2472.495605,1881.769531 2469.012939,1881.769531 2464.209229,1881.769531 
	C2464.209229,1885.486938 2464.209229,1889.043579 2464.209229,1892.600342 
	C2464.208740,1949.260620 2464.209961,2005.921021 2464.201660,2062.581299 
	C2464.201172,2065.244385 2464.342773,2067.936279 2464.014404,2070.564209 
	C2463.499023,2074.686035 2460.682373,2073.684082 2457.089844,2073.003418 
	C2457.089844,2009.376099 2457.089844,1945.865967 2457.089844,1881.707031 
	C2450.315674,1881.707031 2444.520752,1881.707031 2437.624756,1881.707031 
	C2437.624756,1945.510620 2437.624756,2008.985229 2437.624756,2073.122559 
	C2430.434570,2073.122559 2424.320801,2073.122559 2417.126953,2073.122559 
	C2417.126953,2009.383179 2417.126953,1945.886963 2417.126953,1881.744141 
	C2412.619385,1881.744141 2409.167725,1881.744141 2404.693359,1881.744141 
	C2404.693359,1945.649658 2404.693359,2009.134155 2404.693359,2073.203125 
	C2397.516357,2073.203125 2391.341797,2073.203125 2384.060791,2073.203125 
	C2383.908203,2069.724609 2383.622314,2066.221191 2383.620605,2062.718018 
	C2383.593018,2005.724365 2383.631592,1948.730835 2383.527832,1891.737305 
	C2383.521729,1888.296875 2385.104980,1883.978271 2379.036621,1880.126831 
	C2377.206787,1902.791016 2378.371582,1923.819580 2378.158691,1944.788940 
	C2377.942139,1966.117676 2378.110596,1987.450317 2378.110596,2008.781250 
	C2378.110596,2030.069214 2378.110596,2051.357178 2378.110596,2072.411133 
	C2374.133545,2074.200439 2372.120850,2072.633789 2371.527100,2069.740967 
	C2370.933594,2066.850830 2371.105713,2063.784424 2371.104736,2060.795166 
	C2371.085205,2004.801392 2371.093994,1948.807739 2371.077881,1892.813965 
	C2371.076904,1889.820068 2371.217285,1886.766357 2370.652588,1883.864868 
	C2370.455078,1882.849121 2368.398193,1881.753662 2367.065918,1881.562622 
	C2366.241699,1881.444458 2364.485352,1882.862793 2364.357910,1883.762939 
	C2363.939941,1886.710571 2364.010254,1889.736450 2364.009521,1892.732300 
	C2363.995605,1948.392700 2363.998535,2004.053223 2363.998047,2059.713623 
	C2363.998047,2063.268799 2363.998047,2066.823975 2363.998047,2070.934814 
	C2356.949463,2070.934814 2351.103271,2070.934814 2344.172607,2070.934814 
	C2344.001221,2067.265137 2343.696045,2063.747314 2343.694092,2060.229736 
	C2343.662842,2004.235962 2343.672363,1948.242310 2343.663574,1892.248535 
	C2343.663330,1889.583740 2343.852295,1886.872192 2343.409668,1884.275024 
	C2343.209961,1883.102173 2341.675049,1882.156982 2338.942871,1879.073975 
	C2337.546631,1891.866333 2338.295654,1902.307861 2338.162354,1912.679932 
	C2338.029541,1923.010376 2338.133301,1933.343872 2338.133301,1943.676025 
	C2338.133301,1954.341553 2338.133301,1965.006958 2338.133301,1975.672485 
	C2338.133301,1986.338013 2338.133301,1997.003418 2338.133301,2007.668945 
	C2338.133301,2018.001099 2338.133301,2028.333252 2338.133301,2038.665405 
	C2338.133301,2049.257324 2338.133057,2059.849121 2338.133057,2070.537109 
	C2333.505127,2071.902832 2330.618164,2071.893311 2330.388428,2066.943604 
	C2330.264893,2064.282471 2330.334473,2061.612061 2330.334229,2058.945801 
	C2330.331055,2003.618652 2330.330078,1948.291626 2330.329346,1892.964478 
	C2330.329102,1889.387695 2330.329346,1885.810913 2330.329346,1881.646118 
	C2323.821533,1881.646118 2318.364746,1881.646118 2311.774414,1881.646118 
	C2311.774414,1885.684204 2311.774658,1889.253540 2311.774414,1892.822754 
	C2311.773438,1948.483276 2311.772949,2004.143677 2311.770264,2059.804199 
	C2311.770264,2062.137207 2311.804932,2064.471680 2311.731445,2066.802734 
	C2311.577393,2071.672119 2308.831787,2072.115479 2303.852051,2070.325439 
	C2303.852051,2007.859985 2303.852051,1945.055786 2303.852051,1881.669434 
	C2299.489990,1881.669434 2296.289795,1881.669434 2292.013672,1881.669434 
	C2292.013672,1944.539185 2292.013672,2007.360474 2292.013672,2070.841309 
	C2284.501465,2070.841309 2278.052979,2070.841309 2270.384277,2070.841309 
	C2270.384277,2066.951172 2270.380371,2063.390137 2270.384766,2059.828857 
	C2270.454590,2001.171753 2270.577881,1942.514404 2270.461914,1883.857666 
	C2270.455078,1880.441895 2269.007568,1876.772095 2267.387939,1873.658936 
	C2257.854736,1855.334473 2248.071533,1837.140137 2238.039551,1818.241455 
z"/>
<path fill="#35566E" opacity="1.000000" stroke="none" 
	d="
M2145.606445,1992.000000 
	C2145.606445,2018.871948 2145.606445,2044.743774 2145.606445,2071.204102 
	C2138.362549,2071.204102 2132.203125,2071.204102 2125.291016,2071.204102 
	C2125.291016,2008.338013 2125.291016,1945.650757 2125.291016,1882.365723 
	C2131.792969,1882.365723 2137.953857,1882.365723 2145.606689,1882.365723 
	C2145.606689,1918.741821 2145.606689,1954.870972 2145.606445,1992.000000 
z"/>
<path fill="#32546C" opacity="1.000000" stroke="none" 
	d="
M2205.627441,1902.126465 
	C2205.602539,1958.089355 2205.579590,2013.074585 2205.529785,2068.059814 
	C2205.529297,2068.691650 2205.180908,2069.322754 2204.740234,2070.819336 
	C2198.589355,2070.819336 2192.166992,2070.819336 2184.981689,2070.819336 
	C2184.981689,2008.421753 2184.981689,1945.958862 2184.981689,1882.644775 
	C2191.302002,1882.644775 2197.708008,1882.644775 2205.243164,1882.644775 
	C2205.370605,1888.771362 2205.499268,1894.959961 2205.627441,1902.126465 
z"/>
<path fill="#2B4D67" opacity="1.000000" stroke="none" 
	d="
M2158.020508,2006.000000 
	C2158.020508,1964.446777 2158.020508,1923.893677 2158.020508,1882.678955 
	C2165.164307,1882.678955 2171.329102,1882.678955 2177.492920,1882.678955 
	C2179.491699,1890.226074 2179.691406,2061.879150 2177.527832,2071.707031 
	C2173.120850,2071.707031 2168.510742,2071.751953 2163.902344,2071.681885 
	C2162.312012,2071.657715 2160.725830,2071.346680 2158.020508,2071.039795 
	C2158.020508,2049.424072 2158.020508,2028.212036 2158.020508,2006.000000 
z"/>
<path fill="#2B4D67" opacity="1.000000" stroke="none" 
	d="
M2091.366699,1898.312988 
	C2091.366943,1892.739258 2091.366943,1888.122925 2091.366943,1882.759033 
	C2098.220459,1882.759033 2104.323975,1882.759033 2110.442627,1882.759033 
	C2112.486084,1889.854126 2112.857910,2060.391113 2110.738770,2071.168457 
	C2104.708984,2071.168457 2098.562988,2071.168457 2091.366699,2071.168457 
	C2091.366699,2013.609741 2091.366699,1956.439941 2091.366699,1898.312988 
z"/>
<path fill="#2B4D67" opacity="1.000000" stroke="none" 
	d="
M2543.872559,2008.000000 
	C2543.872559,2030.198975 2543.872559,2051.397949 2543.872559,2073.188965 
	C2536.731934,2073.188965 2530.584229,2073.188965 2523.927246,2073.188965 
	C2523.927246,2014.571045 2523.927246,1956.161621 2523.927246,1897.752197 
	C2524.394043,1897.482300 2524.860840,1897.212280 2525.327637,1896.942383 
	C2527.240234,1900.383179 2528.878662,1904.014282 2531.112061,1907.232300 
	C2542.005127,1922.925415 2545.354248,1940.189331 2544.090820,1959.129272 
	C2543.030762,1975.020386 2543.872803,1991.038208 2543.872559,2008.000000 
z"/>
<path fill="#2B4D67" opacity="1.000000" stroke="none" 
	d="
M2031.258179,1972.001831 
	C2031.256348,1961.027344 2031.408203,1951.048950 2031.183838,1941.078857 
	C2031.079712,1936.452393 2032.284668,1932.807129 2035.684692,1929.507935 
	C2040.425415,1924.908203 2044.728271,1919.857178 2048.878662,1915.366943 
	C2050.498535,1916.141968 2050.808105,1916.258545 2051.083008,1916.430664 
	C2051.343750,1916.593994 2051.778076,1916.815063 2051.778564,1917.011841 
	C2051.925049,1965.214600 2052.040527,2013.417480 2052.155518,2061.620361 
	C2052.162354,2064.557129 2052.156494,2067.493896 2052.156494,2071.118652 
	C2045.207275,2071.118652 2039.063599,2071.118652 2031.517822,2071.118652 
	C2030.968872,2060.485352 2031.339111,2049.647217 2031.272461,2038.836548 
	C2031.204712,2027.864502 2031.257324,2016.891479 2031.257446,2005.918945 
	C2031.257446,1994.946411 2031.257690,1983.973755 2031.258179,1972.001831 
z"/>
<path fill="#2F516A" opacity="1.000000" stroke="none" 
	d="
M1971.676270,2039.983521 
	C1971.675293,2026.685181 1971.923950,2014.376343 1971.558960,2002.085938 
	C1971.395996,1996.596680 1973.162842,1992.659424 1977.092896,1988.966187 
	C1984.047852,1982.430298 1990.612427,1975.479370 1998.654297,1967.378906 
	C1998.654297,2002.938477 1998.654297,2036.583984 1998.654297,2070.865479 
	C1990.285278,2072.947754 1981.784912,2071.479492 1972.493530,2071.708008 
	C1970.769531,2061.286377 1972.107544,2051.084961 1971.676270,2039.983521 
z"/>
<path fill="#32546C" opacity="1.000000" stroke="none" 
	d="
M2025.938232,2037.996094 
	C2025.938232,2049.547119 2025.938232,2060.098877 2025.938232,2071.251953 
	C2018.523193,2071.251953 2012.109131,2071.251953 2005.087280,2071.251953 
	C2004.880249,2067.863281 2004.552124,2064.957275 2004.548462,2062.051025 
	C2004.509521,2031.485474 2004.689453,2000.918213 2004.387695,1970.355713 
	C2004.322998,1963.818604 2006.053467,1958.904907 2010.933838,1954.581787 
	C2015.366577,1950.655029 2019.221558,1946.076172 2023.029175,1942.100464 
	C2024.271606,1942.553955 2024.585571,1942.630981 2024.860840,1942.779541 
	C2025.133179,1942.926392 2025.576660,1943.135864 2025.585815,1943.334351 
	C2025.738159,1946.645996 2025.925659,1949.960205 2025.928467,1953.274048 
	C2025.952148,1981.181641 2025.939819,2009.089355 2025.938232,2037.996094 
z"/>
<path fill="#3F5E75" opacity="1.000000" stroke="none" 
	d="
M2230.448242,1992.000000 
	C2230.445801,1957.370605 2230.418701,1923.741333 2230.458984,1890.111938 
	C2230.468262,1882.414795 2230.574463,1882.414917 2238.213379,1882.416016 
	C2238.213379,1945.165161 2238.213379,2007.914551 2238.213379,2071.188477 
	C2235.802734,2071.188477 2233.667236,2071.188477 2230.448242,2071.188477 
	C2230.448242,2044.789185 2230.448242,2018.894531 2230.448242,1992.000000 
z"/>
<path fill="#3F5E75" opacity="1.000000" stroke="none" 
	d="
M2265.290527,1894.558350 
	C2265.290039,1953.939819 2265.290039,2012.398193 2265.290039,2070.587891 
	C2260.525146,2072.283936 2257.522705,2072.496582 2257.239502,2067.396240 
	C2257.147461,2065.737549 2257.204346,2064.070557 2257.204346,2062.407227 
	C2257.201416,2005.192383 2257.194580,1947.977539 2257.214600,1890.762695 
	C2257.215576,1888.147095 2257.460449,1885.531616 2257.602295,1882.704956 
	C2262.084717,1881.013428 2265.050781,1881.215820 2265.264648,1886.650757 
	C2265.356201,1888.975708 2265.287109,1891.307007 2265.290527,1894.558350 
z"/>
<path fill="#3F5E75" opacity="1.000000" stroke="none" 
	d="
M2210.689453,1914.010498 
	C2210.693115,1904.363037 2210.705566,1895.712646 2210.696777,1887.062256 
	C2210.691650,1881.846680 2213.293945,1880.743652 2218.344238,1882.653931 
	C2218.344238,1945.261108 2218.344238,2007.996460 2218.344238,2070.842041 
	C2213.874756,2072.470215 2210.816406,2072.256836 2210.716797,2066.721924 
	C2210.675049,2064.393555 2210.689941,2062.064209 2210.689941,2059.735352 
	C2210.688721,2011.492798 2210.688965,1963.250244 2210.689453,1914.010498 
z"/>
<path fill="#3B5B72" opacity="1.000000" stroke="none" 
	d="
M2077.610352,1981.999023 
	C2077.609619,1952.006714 2077.622070,1923.014404 2077.595703,1894.022217 
	C2077.591064,1888.912964 2077.619141,1883.917114 2084.123291,1882.474731 
	C2086.395264,1889.236816 2087.148682,2057.120361 2084.942383,2071.187744 
	C2082.905273,2071.187744 2080.778320,2071.187744 2077.610107,2071.187744 
	C2077.610107,2041.497681 2077.610107,2012.248413 2077.610352,1981.999023 
z"/>
<path fill="#3F5E75" opacity="1.000000" stroke="none" 
	d="
M2072.491211,1896.989502 
	C2072.521240,1955.207031 2072.521240,2012.725586 2072.521240,2070.895996 
	C2069.974854,2071.174561 2067.911377,2071.400391 2065.343018,2071.681396 
	C2065.017578,2068.844971 2064.538330,2066.607666 2064.536377,2064.369629 
	C2064.493896,2012.145752 2064.564697,1959.921753 2064.409424,1907.698364 
	C2064.393311,1902.292847 2065.367676,1897.816162 2070.044922,1894.786133 
	C2070.383545,1894.566895 2071.634521,1895.756226 2072.491211,1896.989502 
z"/>
<path fill="#A3A3A3" opacity="1.000000" stroke="none" 
	d="
M2313.714355,1743.670654 
	C2311.820068,1742.171875 2309.885986,1740.722290 2309.874268,1739.256958 
	C2309.735596,1722.273926 2309.878174,1705.288574 2310.010010,1688.304321 
	C2310.013672,1687.826782 2310.722168,1687.354614 2311.829102,1685.971680 
	C2325.714600,1698.625366 2339.572998,1711.254028 2355.335938,1725.618408 
	C2355.335938,1712.040405 2355.335938,1700.684937 2355.335938,1689.268188 
	C2360.856934,1687.761597 2365.179688,1687.062012 2365.209717,1693.103760 
	C2365.295898,1710.364502 2364.833008,1727.628174 2364.549805,1744.890137 
	C2364.546387,1745.107178 2364.069092,1745.316528 2362.773438,1746.393799 
	C2356.170898,1740.419189 2349.412109,1734.282593 2342.629639,1728.171875 
	C2335.793701,1722.012695 2328.934570,1715.879272 2320.110352,1707.962646 
	C2319.813721,1714.381958 2319.540283,1718.454590 2319.459229,1722.531128 
	C2319.360107,1727.527222 2319.451416,1732.526855 2319.404541,1737.524414 
	C2319.373779,1740.786377 2318.598877,1743.542480 2313.714355,1743.670654 
z"/>
<path fill="#A9AAAA" opacity="1.000000" stroke="none" 
	d="
M2240.977539,1687.970947 
	C2257.426514,1687.968140 2272.976318,1687.968140 2289.223145,1687.968140 
	C2284.839355,1701.633545 2273.700195,1696.415527 2264.156738,1698.735229 
	C2262.854736,1713.040405 2264.392090,1727.899536 2263.260742,1743.194824 
	C2260.165527,1743.330200 2257.705322,1743.437744 2253.794434,1743.608765 
	C2253.794434,1735.729004 2253.794678,1728.527100 2253.794678,1721.325073 
	C2253.794678,1714.088379 2253.794434,1706.851685 2253.794434,1698.575073 
	C2244.828613,1698.143921 2237.057617,1697.770264 2228.311523,1697.349609 
	C2230.779541,1691.380615 2233.938965,1687.888672 2240.977539,1687.970947 
z"/>
<path fill="#2F516A" opacity="1.000000" stroke="none" 
	d="
M1966.235596,2039.999023 
	C1966.235596,2050.862793 1966.235596,2060.729492 1966.235596,2071.214111 
	C1961.117554,2071.214111 1956.990845,2071.214111 1951.595825,2071.214111 
	C1951.595825,2065.838135 1951.596191,2060.643311 1951.595825,2055.448486 
	C1951.595215,2046.168335 1952.475464,2036.782104 1951.375488,2027.634033 
	C1949.920654,2015.534790 1956.090820,2008.586426 1966.235474,2001.567261 
	C1966.235474,2014.784790 1966.235474,2026.893311 1966.235596,2039.999023 
z"/>
<path fill="#35566E" opacity="1.000000" stroke="none" 
	d="
M2563.505859,1990.202515 
	C2563.506104,1983.664062 2563.506104,1978.084351 2563.506104,1970.847534 
	C2568.795898,1976.362427 2570.890869,1981.299316 2570.899414,1987.065552 
	C2570.939209,2014.708496 2570.917969,2042.351440 2570.875732,2069.994385 
	C2570.874268,2070.939941 2570.417480,2071.884766 2570.160889,2072.876221 
	C2566.879883,2074.331055 2564.150391,2074.567627 2563.627686,2070.089111 
	C2563.359131,2067.786621 2563.508545,2065.432861 2563.508057,2063.102295 
	C2563.502441,2039.121948 2563.505127,2015.141724 2563.505859,1990.202515 
z"/>
<path fill="#4C697E" opacity="1.000000" stroke="none" 
	d="
M2583.714844,2024.090576 
	C2583.718262,2039.338013 2583.827881,2053.602295 2583.674072,2067.863525 
	C2583.610596,2073.770020 2583.354248,2073.767334 2576.320068,2072.577148 
	C2576.320068,2046.910034 2576.320068,2021.189941 2576.320068,1994.524048 
	C2585.482666,2003.113525 2583.469482,2013.389771 2583.714844,2024.090576 
z"/>
<path fill="#3F5E75" opacity="1.000000" stroke="none" 
	d="
M2596.559570,2046.555176 
	C2596.559326,2042.039551 2596.559326,2038.427612 2596.559326,2034.354614 
	C2601.700439,2038.911621 2614.354492,2061.763428 2618.252686,2073.297119 
	C2611.316406,2073.297119 2604.583496,2073.297119 2596.560059,2073.297119 
	C2596.560059,2064.520508 2596.560059,2055.989746 2596.559570,2046.555176 
z"/>
<path fill="#3B5B72" opacity="1.000000" stroke="none" 
	d="
M1925.941895,2052.755127 
	C1925.940674,2059.260010 1925.940674,2064.884033 1925.940674,2071.091064 
	C1916.221313,2072.744629 1907.163940,2072.086670 1895.812134,2071.457520 
	C1906.008057,2061.053955 1914.872803,2052.008789 1925.183105,2041.488403 
	C1925.534180,2046.284790 1925.738647,2049.079590 1925.941895,2052.755127 
z"/>
<path fill="#35566E" opacity="1.000000" stroke="none" 
	d="
M1940.491455,2071.243896 
	C1939.585571,2057.810303 1939.309692,2044.860840 1939.126465,2031.910278 
	C1939.065063,2027.564575 1940.913574,2024.368408 1946.249023,2022.335083 
	C1946.249023,2038.162354 1946.314453,2053.381104 1946.195801,2068.598145 
	C1946.171143,2071.768066 1943.725952,2072.102051 1940.491455,2071.243896 
z"/>
</svg>